<?xml version="1.0" standalone="no"?>
<!DOCTYPE svg PUBLIC "-//W3C//DTD SVG 20010904//EN"
 "http://www.w3.org/TR/2001/REC-SVG-20010904/DTD/svg10.dtd">
<svg version="1.0" xmlns="http://www.w3.org/2000/svg"
 width="364.000000pt" height="364.000000pt" viewBox="0 0 364.000000 364.000000"
 preserveAspectRatio="xMidYMid meet">
<metadata>
Created by potrace 1.14, written by Peter Selinger 2001-2017
</metadata>
<g transform="translate(0.000000,364.000000) scale(0.100000,-0.100000)"
fill="#000000" stroke="none">
<path d="M1565 3614 c-208 -31 -385 -87 -569 -180 -528 -266 -890 -767 -980
-1354 -19 -126 -14 -450 8 -572 86 -458 332 -857 698 -1130 118 -89 164 -117
276 -174 106 -54 218 -97 331 -128 106 -29 125 -33 266 -55 89 -14 366 -11
476 4 662 94 1218 536 1452 1155 38 101 71 210 82 275 4 22 9 51 12 65 36 196
27 509 -22 710 -177 733 -762 1266 -1515 1383 -120 19 -395 19 -515 1z"/>
</g>
</svg>
