<?xml version="1.0" standalone="no"?>
<!DOCTYPE svg PUBLIC "-//W3C//DTD SVG 20010904//EN"
 "http://www.w3.org/TR/2001/REC-SVG-20010904/DTD/svg10.dtd">
<svg version="1.0" xmlns="http://www.w3.org/2000/svg"
 width="426.000000pt" height="426.000000pt" viewBox="0 0 426.000000 426.000000"
 preserveAspectRatio="xMidYMid meet">
<metadata>
Created by potrace 1.14, written by Peter Selinger 2001-2017
</metadata>
<g transform="translate(0.000000,426.000000) scale(0.100000,-0.100000)"
fill="#000000" stroke="none">
<path d="M1430 3086 c-113 -59 -151 -212 -77 -309 14 -18 140 -150 280 -293
140 -142 254 -259 253 -259 -1 0 -38 -35 -82 -78 l-81 -79 -144 148 c-370 381
-424 424 -518 424 -164 -1 -269 -196 -177 -329 22 -32 186 -203 486 -506 l44
-45 -74 -75 c-41 -41 -78 -74 -82 -73 -3 2 -124 118 -267 260 -175 172 -276
263 -306 278 -87 42 -187 20 -254 -56 -21 -24 -41 -58 -45 -75 -9 -45 -7 -114
3 -141 21 -55 726 -769 783 -793 48 -20 131 -19 174 1 18 9 110 91 205 182 94
92 175 167 180 167 4 0 73 -63 151 -140 209 -204 223 -214 294 -219 32 -2 73
0 90 5 32 9 132 98 296 263 l98 100 68 -66 c305 -301 322 -313 418 -305 50 4
72 11 102 33 36 27 562 549 675 671 73 78 87 106 87 171 0 92 -46 166 -125
203 -51 24 -129 24 -180 0 -26 -11 -135 -112 -305 -279 -146 -144 -267 -262
-270 -262 -3 0 -39 34 -80 75 l-75 75 113 113 c277 278 414 424 432 462 41 86
19 188 -54 253 -69 60 -185 67 -255 16 -20 -15 -150 -141 -290 -281 l-255
-253 -76 72 c-43 40 -77 76 -76 80 0 3 94 102 207 220 362 374 354 365 353
453 -2 131 -86 215 -217 215 -52 0 -71 -5 -108 -28 -24 -16 -157 -140 -296
-276 -138 -136 -254 -248 -258 -248 -3 1 -120 112 -259 247 -139 136 -272 260
-296 276 -57 39 -143 41 -210 5z m843 -1408 c-88 -88 -74 -90 -175 17 l-57 61
76 77 77 77 78 -77 78 -78 -77 -77z"/>
</g>
</svg>
